<svg width="600" height="600" viewBox="0 0 600 600" fill="cover" xmlns="http://www.w3.org/2000/svg">

<line x1="20" y1="300" x2="80" y2="300" stroke="#C4C4C4" stroke-width="5"/>
<line x1="80" y1="300" x2="140" y2="300" stroke="#C4C4C4" stroke-width="5"/>
<line x1="140" y1="300" x2="240" y2="200" stroke="#C4C4C4" stroke-width="5"/>
<line x1="140" y1="300" x2="240" y2="400" stroke="#C4C4C4" stroke-width="5"/>
<line x1="240" y1="200" x2="300" y2="200" stroke="#C4C4C4" stroke-width="5"/>
<line x1="240" y1="400" x2="300" y2="400" stroke="#C4C4C4" stroke-width="5"/>
<line x1="300" y1="200" x2="420" y2="100" stroke="#C4C4C4" stroke-width="5"/>
<line x1="300" y1="200" x2="420" y2="200" stroke="#C4C4C4" stroke-width="5"/>
<line x1="300" y1="200" x2="420" y2="300" stroke="#C4C4C4" stroke-width="5"/>
<line x1="300" y1="200" x2="420" y2="400" stroke="#C4C4C4" stroke-width="5"/>
<line x1="300" y1="200" x2="420" y2="500" stroke="#C4C4C4" stroke-width="5"/>
<line x1="300" y1="400" x2="420" y2="100" stroke="#C4C4C4" stroke-width="5"/>
<line x1="300" y1="400" x2="420" y2="200" stroke="#C4C4C4" stroke-width="5"/>
<line x1="300" y1="400" x2="420" y2="300" stroke="#C4C4C4" stroke-width="5"/>
<line x1="300" y1="400" x2="420" y2="400" stroke="#C4C4C4" stroke-width="5"/>
<line x1="300" y1="400" x2="420" y2="500" stroke="#C4C4C4" stroke-width="5"/>


<circle cx="20" cy="300" r="19" fill="#69B3A2"/>
<circle cx="80" cy="300" r="19" fill="#69B3A2"/>
<circle cx="140" cy="300" r="19" fill="#69B3A2"/>
<circle cx="240" cy="200" r="19" fill="#69B3A2"/>
<circle cx="240" cy="400" r="19" fill="#69B3A2"/>
<circle cx="300" cy="200" r="19" fill="#69B3A2"/>
<circle cx="300" cy="400" r="19" fill="#69B3A2"/>
<circle cx="420" cy="100" r="19" fill="#69B3A2"/>
<circle cx="420" cy="200" r="19" fill="#69B3A2"/>
<circle cx="420" cy="300" r="19" fill="#69B3A2"/>
<circle cx="420" cy="400" r="19" fill="#69B3A2"/>
<circle cx="420" cy="500" r="19" fill="#69B3A2"/>

</svg>
