<svg width="622" height="634" viewBox="0 0 622 634" fill="none" xmlns="http://www.w3.org/2000/svg">

<line y1="-2.5" x2="328.558" y2="-2.5" transform="matrix(-0.839374 0.543554 -0.526736 -0.850029 304.404 24.8577)" stroke="#C4C4C4" stroke-width="5"/>
<line y1="-2.5" x2="349.41" y2="-2.5" transform="matrix(-0.859511 -0.511117 0.494571 -0.869137 604.726 203.447)" stroke="#C4C4C4" stroke-width="5"/>
<line y1="-2.5" x2="413.593" y2="-2.5" transform="matrix(-0.313475 -0.949596 0.945329 -0.326118 158.272 596.194)" stroke="#C4C4C4" stroke-width="5"/>
<line x1="158.272" y1="593.694" x2="454.565" y2="593.694" stroke="#C4C4C4" stroke-width="5"/>
<line y1="-2.5" x2="419.694" y2="-2.5" transform="matrix(0.352551 -0.935793 0.930483 0.366335 456.763 596.194)" stroke="#C4C4C4" stroke-width="5"/>
<line y1="-2.5" x2="70.986" y2="-2.5" transform="matrix(0.510782 0.85971 -0.849566 0.527483 420.505 535.166)" stroke="#C4C4C4" stroke-width="5"/>
<line y1="-2.5" x2="78.5096" y2="-2.5" transform="matrix(0.960987 -0.276594 0.265534 0.964102 529.28 225.162)" stroke="#C4C4C4" stroke-width="5"/>
<line y1="-2.5" x2="90.9978" y2="-2.5" transform="matrix(-0.0201239 -0.999798 0.999779 -0.0210296 306.236 104.979)" stroke="#C4C4C4" stroke-width="5"/>
<line y1="-2.5" x2="74.6464" y2="-2.5" transform="matrix(-0.956751 -0.290908 0.279372 -0.960183 100.039 225.162)" stroke="#C4C4C4" stroke-width="5"/>
<line y1="-2.5" x2="68.8449" y2="-2.5" transform="matrix(-0.462829 0.886447 -0.877832 -0.478969 190.136 535.166)" stroke="#C4C4C4" stroke-width="5"/>
<line y1="-2.5" x2="162.294" y2="-2.5" transform="matrix(0.126375 0.991983 -0.991254 0.131968 169.626 374.174)" stroke="#C4C4C4" stroke-width="5"/>
<line y1="-2.5" x2="164.459" y2="-2.5" transform="matrix(0.423125 0.906071 -0.898693 0.438577 100.039 225.162)" stroke="#C4C4C4" stroke-width="5"/>
<line y1="-2.5" x2="119.51" y2="-2.5" transform="matrix(-0.931631 0.363406 -0.3497 -0.936862 211.378 181.732)" stroke="#C4C4C4" stroke-width="5"/>
<line y1="-2.5" x2="120.602" y2="-2.5" transform="matrix(-0.771352 0.636409 -0.619661 -0.78487 304.404 104.979)" stroke="#C4C4C4" stroke-width="5"/>
<line y1="-2.5" x2="122.305" y2="-2.5" transform="matrix(0.778578 0.627548 -0.610734 0.791836 304.404 104.979)" stroke="#C4C4C4" stroke-width="5"/>
<line y1="-2.5" x2="136.732" y2="-2.5" transform="matrix(0.948214 0.317632 -0.305248 0.952273 399.629 181.732)" stroke="#C4C4C4" stroke-width="5"/>
<line y1="-2.5" x2="170.635" y2="-2.5" transform="matrix(0.487226 -0.873276 0.863885 0.503689 446.142 374.174)" stroke="#C4C4C4" stroke-width="5"/>
<line y1="-2.5" x2="163.021" y2="-2.5" transform="matrix(0.157263 -0.987557 0.986434 0.164158 420.505 535.166)" stroke="#C4C4C4" stroke-width="5"/>
<line y1="-2.5" x2="126.625" y2="-2.5" transform="matrix(0.91688 0.399163 -0.384556 0.923101 304.404 484.622)" stroke="#C4C4C4" stroke-width="5"/>
<line y1="-2.5" x2="124.948" y2="-2.5" transform="matrix(0.914529 -0.40452 0.389789 0.920904 190.136 535.166)" stroke="#C4C4C4" stroke-width="5"/>
<line y1="-2.5" x2="68.0427" y2="-2.5" transform="matrix(0.60285 0.797854 -0.78483 0.619711 211.378 181.732)" stroke="#C4C4C4" stroke-width="5"/>
<line y1="-2.5" x2="62.7636" y2="-2.5" transform="matrix(-0.501838 0.864962 -0.855103 -0.518457 399.262 181.732)" stroke="#C4C4C4" stroke-width="5"/>
<line y1="-2.5" x2="61.4644" y2="-2.5" transform="matrix(-0.935511 -0.353298 0.339868 -0.940473 446.142 374.174)" stroke="#C4C4C4" stroke-width="5"/>
<line x1="301.904" y1="484.622" x2="301.904" y2="412.363" stroke="#C4C4C4" stroke-width="5"/>
<line y1="-2.5" x2="65.9401" y2="-2.5" transform="matrix(0.944219 -0.329318 0.316579 0.948566 168.893 374.174)" stroke="#C4C4C4" stroke-width="5"/>
<line y1="-2.5" x2="129.057" y2="-2.5" transform="matrix(0.164597 -0.986361 0.985133 0.171794 231.155 363.316)" stroke="#C4C4C4" stroke-width="5"/>
<line x1="362.638" y1="238.52" x2="252.398" y2="238.52" stroke="#C4C4C4" stroke-width="5"/>
<line y1="-2.5" x2="118.361" y2="-2.5" transform="matrix(0.179471 0.983763 -0.982307 0.187275 367.765 236.02)" stroke="#C4C4C4" stroke-width="5"/>
<line y1="-2.5" x2="103.747" y2="-2.5" transform="matrix(-0.816464 0.577396 -0.560451 -0.828187 389.007 352.458)" stroke="#C4C4C4" stroke-width="5"/>
<line y1="-2.5" x2="94.6254" y2="-2.5" transform="matrix(-0.774097 -0.633067 0.616292 -0.787518 304.404 412.363)" stroke="#C4C4C4" stroke-width="5"/>
<ellipse cx="305" cy="418.646" rx="29" ry="29.6457" fill="#69B3A2"/>
<ellipse cx="388" cy="352.646" rx="29" ry="29.6457" fill="#69B3A2"/>
<ellipse cx="232" cy="352.646" rx="29" ry="29.6457" fill="#69B3A2"/>
<ellipse cx="368" cy="239.646" rx="29" ry="29.6457" fill="#69B3A2"/>
<ellipse cx="258" cy="243.646" rx="29" ry="29.6457" fill="#69B3A2"/>
<ellipse cx="304" cy="484.646" rx="29" ry="29.6457" fill="#69B3A2"/>
<ellipse cx="445" cy="381.646" rx="29" ry="29.6457" fill="#69B3A2"/>
<ellipse cx="170" cy="373.646" rx="29" ry="29.6457" fill="#69B3A2"/>
<ellipse cx="399" cy="184.646" rx="29" ry="29.6457" fill="#69B3A2"/>
<ellipse cx="213" cy="179.646" rx="29" ry="29.6457" fill="#69B3A2"/>
<ellipse cx="410" cy="529.646" rx="29" ry="29.6457" fill="#69B3A2"/>
<ellipse cx="193" cy="524.646" rx="29" ry="29.6457" fill="#69B3A2"/>
<ellipse cx="519" cy="225.646" rx="29" ry="29.6457" fill="#69B3A2"/>
<ellipse cx="106" cy="225.646" rx="29" ry="29.6457" fill="#69B3A2"/>
<ellipse cx="308" cy="113.646" rx="29" ry="29.6457" fill="#69B3A2"/>
<ellipse cx="305" cy="29.6457" rx="29" ry="29.6457" fill="#69B3A2"/>
<ellipse cx="29" cy="202.646" rx="29" ry="29.6457" fill="#69B3A2"/>
<ellipse cx="593" cy="200.646" rx="29" ry="29.6457" fill="#69B3A2"/>
<ellipse cx="455" cy="595.646" rx="29" ry="29.6457" fill="#69B3A2"/>
<ellipse cx="161" cy="603.646" rx="29" ry="29.6457" fill="#69B3A2"/>
</svg>
