<svg width="622" height="634" viewBox="0 0 622 634" fill="none" xmlns="http://www.w3.org/2000/svg">

<line x1="302.935" y1="178.499" x2="71.9351" y2="172.499" stroke="#C4C4C4" stroke-width="5"/>
<line x1="194.402" y1="326.07" x2="73.4025" y2="408.07" stroke="#C4C4C4" stroke-width="5"/>
<line x1="271.832" y1="466.245" x2="190.832" y2="325.245" stroke="#C4C4C4" stroke-width="5"/>
<line x1="466.085" y1="178.38" x2="276.085" y2="465.38" stroke="#C4C4C4" stroke-width="5"/>
<line x1="466.5" y1="177" x2="466.5" y2="366" stroke="#C4C4C4" stroke-width="5"/>
<line x1="462.097" y1="367.621" x2="301.097" y2="178.621" stroke="#C4C4C4" stroke-width="5"/>
<line x1="463.626" y1="367.472" x2="192.626" y2="326.472" stroke="#C4C4C4" stroke-width="5"/>
<line x1="466.369" y1="176.201" x2="553.369" y2="434.201" stroke="#C4C4C4" stroke-width="5"/>
<line x1="69.5" y1="406" x2="69.5" y2="176" stroke="#C4C4C4" stroke-width="5"/>
<ellipse cx="72" cy="405.646" rx="29" ry="29.6457" fill="#69B3A2"/>
<ellipse cx="193" cy="323.646" rx="29" ry="29.6457" fill="#69B3A2"/>
<ellipse cx="274" cy="464.646" rx="29" ry="29.6457" fill="#69B3A2"/>
<ellipse cx="464" cy="365.646" rx="29" ry="29.6457" fill="#69B3A2"/>
<ellipse cx="464" cy="176.646" rx="29" ry="29.6457" fill="#69B3A2"/>
<ellipse cx="551" cy="434.646" rx="29" ry="29.6457" fill="#69B3A2"/>
<ellipse cx="72" cy="169.646" rx="29" ry="29.6457" fill="#69B3A2"/>
<ellipse cx="303" cy="176.646" rx="29" ry="29.6457" fill="#69B3A2"/>
</svg>
