<svg id="Layer_1" enable-background="new 0 0 508.402 508.402" height="512" viewBox="0 0 508.402 508.402" width="512" xmlns="http://www.w3.org/2000/svg"><g><path d="m389.201 310.826 56.197-16.224 48.803-32.776v-136.771l-54.972 15.888-50.028 33.561-10 84.748z" fill="#00dc7b"/><path d="m254.201 106.473 10-36.453-10-70.02-68.863 35.809-35.717 18.777 48.757 34.189z" fill="#ff8797"/><path d="m254.133 106.508c-12.644-6.281-91.784-45.6-104.512-51.922-15.255 7.932-120.044 62.422-135.42 70.418l60.436 46.658 44.608 2.584 82.455-36.016z" fill="#f37"/><path d="m389.201 174.504 105-49.5-136.037-70.738-51.981 16.103-51.982 36.104 67.514 44.021z" fill="#e40c57"/><path d="m254.133 106.508-76.855 38.594-58.341 28.955 70.666 43.228 64.598 21.309 10.394-57.594-10.394-74.459-.034-.018z" fill="#ff8797"/><path d="m389.201 446.602 105-48.064v-136.712c-10.938 5.104-95.735 44.678-105 49l-10 79.816z" fill="#c6ea4b"/><path id="XMLID_21_" d="m119.201 446.602c-16.342-7.48-97.898-44.813-105-48.064 0-3.357 0-133.365 0-136.711l48.5 12.424 56.5 36.576 10 79.633z" fill="#ffb366"/><path d="m119.201 310.826v135.775c9.111 4.172 125.888 57.629 135 61.801l10-75.523-10-59.053-67.5-41.5z" fill="#ffe666"/><path id="XMLID_5_" d="m14.52 124.838-.159.084-.159.082v136.822c11.336 5.291 92.549 43.189 105 49l10-43.711-10.265-93.059c-12.477-5.88-94.753-44.661-104.417-49.218z" fill="#ffe666"/><path d="m119.291 174.223-.045.023-.045.021v136.559c9.117 4.256 125.881 58.744 135 63l10-59.689-10-75.543c-9.116-4.297-125.79-60.073-134.91-64.371z" fill="#ffb366"/><path d="m389.201 174.504-73.195 24.748-61.805 39.342v135.232l70.941-23.105 64.059-39.895z" fill="#c6ea4b"/><path d="m358.164 54.266-103.963-54.266.003 106.473z" fill="#f37"/><path d="m254.201 106.541v132.053c19.258-9.143 115.713-54.934 135-64.09-14.317-7.209-121.946-61.391-135-67.963z" fill="#f37"/><path d="m389.201 310.826-135 63v134.576l135-61.8z" fill="#00dc7b"/></g></svg>