<?xml version="1.0" standalone="no"?>
<!DOCTYPE svg PUBLIC "-//W3C//DTD SVG 20010904//EN"
 "http://www.w3.org/TR/2001/REC-SVG-20010904/DTD/svg10.dtd">
<svg version="1.0" xmlns="http://www.w3.org/2000/svg"
 width="512.000000pt" height="512.000000pt" viewBox="0 0 512.000000 512.000000"
 preserveAspectRatio="xMidYMid meet">

<g transform="translate(0.000000,512.000000) scale(0.100000,-0.100000)"
fill="#000000" stroke="none">
<path d="M2107 5105 c-100 -19 -209 -56 -295 -99 -165 -84 -358 -256 -478
-427 -50 -70 -59 -79 -87 -79 -47 0 -132 -25 -193 -56 -115 -58 -243 -209
-296 -347 -20 -51 -42 -77 -178 -210 -85 -84 -177 -167 -204 -185 -45 -29 -57
-32 -126 -32 -97 0 -151 -26 -196 -92 -72 -107 -72 -339 2 -451 29 -44 74 -74
124 -83 23 -5 46 -20 67 -44 60 -69 168 -89 293 -55 75 20 84 19 123 -15 37
-32 67 -108 67 -171 0 -41 27 -79 55 -79 9 0 26 11 39 25 l24 25 6 -22 c3 -13
6 -64 6 -114 0 -98 7 -114 51 -114 21 0 43 17 93 71 78 85 138 196 156 294 11
58 15 66 25 52 9 -12 14 -109 18 -340 7 -395 20 -497 81 -649 40 -99 87 -168
178 -262 l88 -91 0 -66 c0 -36 9 -114 21 -175 39 -200 27 -447 -31 -659 -28
-106 -81 -246 -94 -250 -166 -58 -220 -113 -246 -253 -12 -70 2 -122 39 -142
15 -7 149 -10 450 -8 l429 3 27 25 c49 45 59 82 60 230 l1 135 62 133 c71 149
116 309 152 538 28 174 26 167 53 161 12 -2 69 -15 127 -27 84 -19 137 -23
265 -24 176 0 253 10 423 56 131 35 132 35 177 -55 58 -116 13 -336 -124 -603
-67 -132 -82 -152 -138 -180 -67 -33 -136 -110 -162 -180 -23 -61 -27 -150 -8
-175 29 -38 45 -39 501 -39 l446 0 30 28 c37 33 52 102 43 194 -5 62 -4 67 47
168 29 58 95 185 146 282 61 114 99 199 109 241 18 80 23 207 12 352 l-9 110
70 94 c168 226 238 451 230 742 l-4 146 91 -5 c148 -8 245 23 245 78 0 11 18
37 41 57 51 46 79 101 86 169 5 50 4 55 -24 81 -24 23 -31 39 -36 85 -6 64
-49 153 -104 218 -27 31 -41 40 -66 40 -44 0 -51 -7 -81 -74 -54 -123 -147
-194 -281 -216 l-60 -10 -75 74 c-260 255 -551 308 -1255 231 -320 -35 -519
-42 -615 -21 -165 35 -303 135 -411 300 -33 50 -62 101 -66 113 -3 15 5 45 22
81 15 31 40 91 55 132 l28 74 70 22 c362 110 656 572 410 646 -30 9 -69 7
-188 -7 -118 -14 -172 -16 -253 -9 -56 5 -155 8 -219 8 -85 -1 -116 1 -111 10
23 39 114 145 174 200 152 141 359 225 557 226 53 0 94 20 110 55 29 63 4 125
-60 149 -130 48 -387 68 -531 41z m-622 -735 c40 -15 80 -21 122 -21 34 1 74
-1 88 -5 l26 -7 -24 -26 c-58 -63 -69 -97 -41 -125 28 -28 62 -20 92 23 72
103 173 128 407 100 77 -9 122 -8 247 6 158 17 209 17 215 0 2 -6 -30 -11 -80
-11 -91 -2 -166 -23 -278 -80 -97 -48 -227 -84 -333 -90 -135 -8 -154 -12
-172 -39 -15 -23 -15 -27 0 -50 15 -23 23 -25 84 -25 153 1 318 39 471 110 59
27 124 53 146 59 43 12 115 15 115 5 0 -14 -72 -103 -117 -145 -148 -138 -320
-205 -462 -179 -34 6 -82 20 -108 31 -25 11 -54 17 -64 14 -25 -8 -42 -41 -34
-66 9 -27 98 -68 181 -82 35 -6 64 -16 64 -22 0 -5 -15 -46 -33 -90 -40 -100
-124 -221 -196 -287 -62 -55 -187 -119 -271 -139 -63 -15 -206 -18 -297 -6
-60 8 -63 7 -79 -19 -17 -25 -17 -28 8 -73 14 -25 29 -60 33 -78 l6 -32 -45
15 c-42 15 -49 15 -71 0 -23 -15 -24 -22 -24 -98 1 -90 -16 -148 -67 -235
l-28 -48 -12 65 c-14 72 -38 146 -55 167 -13 15 -61 17 -75 3 -7 -7 -18 6 -34
39 -27 59 -61 94 -112 115 -46 20 -87 20 -158 1 -68 -18 -137 -19 -169 -1 -25
14 -24 14 30 37 141 60 302 162 314 199 8 25 -11 60 -33 61 -32 2 -43 -2 -107
-47 -74 -52 -230 -128 -297 -144 -54 -14 -89 -2 -120 40 -29 40 -43 145 -30
231 17 117 53 149 166 149 88 0 149 31 272 139 98 85 284 279 284 296 0 21 79
167 118 218 55 70 132 127 211 155 57 19 80 22 166 18 69 -3 118 -11 160 -26z
m525 -1042 c48 -84 170 -212 256 -268 41 -27 110 -59 160 -76 87 -28 94 -29
289 -28 144 0 268 8 444 27 495 54 708 46 913 -37 230 -93 391 -285 463 -552
9 -33 19 -113 22 -179 11 -260 -57 -480 -217 -694 -39 -52 -73 -106 -77 -120
-8 -30 -7 -32 2 -241 6 -126 5 -166 -8 -216 -9 -36 -74 -173 -154 -327 l-138
-266 -50 -1 c-56 0 -150 22 -195 45 l-29 15 39 70 c121 221 183 411 184 570 1
138 -25 189 -182 353 -154 161 -176 202 -180 342 -2 55 -9 106 -14 113 -14 16
-63 15 -77 -2 -18 -22 -25 -130 -11 -198 12 -61 44 -137 81 -189 l19 -26 -62
-28 c-105 -47 -209 -82 -318 -107 -91 -20 -131 -23 -305 -23 -206 0 -248 6
-417 59 -77 24 -85 12 -113 -169 -50 -320 -87 -454 -169 -627 -26 -53 -52
-120 -59 -147 l-12 -51 -41 0 c-23 0 -71 9 -107 20 l-65 20 24 63 c39 96 91
311 105 427 19 164 7 358 -31 510 -17 69 -40 168 -51 220 -12 52 -26 101 -31
108 -15 17 -63 15 -79 -4 -12 -15 -8 -57 18 -177 l6 -29 -74 37 c-218 109
-362 276 -418 486 -37 137 -44 232 -46 639 -1 217 -5 405 -9 416 -6 21 -3 22
116 26 205 8 349 69 483 204 38 39 72 72 75 72 3 1 21 -26 40 -60z m2920 -440
c24 -50 30 -77 30 -127 0 -65 16 -101 46 -101 8 0 10 -8 6 -22 -9 -38 -32 -66
-83 -103 -30 -21 -49 -43 -49 -54 0 -25 -65 -36 -153 -27 -99 11 -103 13 -117
59 -7 23 -27 71 -45 107 l-33 66 50 12 c122 29 224 101 283 201 17 28 31 51
33 51 2 0 16 -28 32 -62z m-3108 -1483 c41 -15 49 -23 57 -54 26 -97 33 -181
29 -339 -4 -135 -10 -190 -32 -287 -34 -145 -95 -316 -116 -322 -8 -2 -37 -13
-63 -23 -44 -17 -51 -17 -92 -4 l-44 16 30 81 c100 271 134 609 85 837 -8 36
-17 91 -21 122 l-7 57 63 -33 c35 -19 85 -41 111 -51z m1872 -114 c40 -42 77
-92 93 -127 23 -51 25 -65 20 -138 -10 -141 -73 -319 -180 -512 -45 -81 -55
-93 -103 -118 -55 -29 -69 -29 -126 0 l-28 14 49 93 c111 208 172 401 172 547
0 92 -13 142 -56 210 -14 23 -25 43 -23 45 6 5 103 54 109 55 3 0 36 -31 73
-69z"/>
<path d="M1115 4001 c-66 -40 -104 -116 -85 -166 21 -54 83 -38 100 26 7 26
19 44 36 51 38 17 71 -3 84 -51 17 -64 71 -76 99 -23 12 23 -3 89 -28 119 -50
61 -146 82 -206 44z"/>
<path d="M224 3510 c-46 -19 -42 -28 40 -95 50 -40 90 -46 106 -14 17 30 5 61
-33 86 -39 27 -84 36 -113 23z"/>
</g>
</svg>
