<svg width="622" height="634" viewBox="0 0 622 634" fill="none" xmlns="http://www.w3.org/2000/svg">

<line x1="280.412" y1="169.93" x2="173.412" y2="81.9309" stroke="#C4C4C4" stroke-width="5"/>
<line x1="250.57" y1="287.413" x2="279.57" y2="167.413" stroke="#C4C4C4" stroke-width="5"/>
<line x1="72.3577" y1="166.115" x2="173.358" y2="78.1151" stroke="#C4C4C4" stroke-width="5"/>
<line x1="76.3535" y1="167.157" x2="119.353" y2="287.157" stroke="#C4C4C4" stroke-width="5"/>
<line x1="132" y1="285.5" x2="248" y2="285.5" stroke="#C4C4C4" stroke-width="5"/>
<ellipse cx="175" cy="79.6457" rx="29" ry="29.6457" fill="#69B3A2"/>
<ellipse cx="74" cy="167.646" rx="29" ry="29.6457" fill="#69B3A2"/>
<ellipse cx="117" cy="287.646" rx="29" ry="29.6457" fill="#69B3A2"/>
<ellipse cx="248" cy="287.646" rx="29" ry="29.6457" fill="#69B3A2"/>
<ellipse cx="282" cy="167.646" rx="29" ry="29.6457" fill="#69B3A2"/>
<line x1="496.913" y1="436.376" x2="438.913" y2="348.376" stroke="#C4C4C4" stroke-width="5"/>
<line x1="380.913" y1="433.624" x2="438.913" y2="345.624" stroke="#C4C4C4" stroke-width="5"/>
<line x1="322.854" y1="530.717" x2="380.854" y2="433.717" stroke="#C4C4C4" stroke-width="5"/>
<line x1="438.854" y1="533.283" x2="380.854" y2="436.283" stroke="#C4C4C4" stroke-width="5"/>
<ellipse cx="441" cy="346.646" rx="29" ry="29.6457" fill="#69B3A2"/>
<ellipse cx="499" cy="434.646" rx="29" ry="29.6457" fill="#69B3A2"/>
<ellipse cx="383" cy="434.646" rx="29" ry="29.6457" fill="#69B3A2"/>
<ellipse cx="325" cy="531.646" rx="29" ry="29.6457" fill="#69B3A2"/>
<ellipse cx="441" cy="531.646" rx="29" ry="29.6457" fill="#69B3A2"/>
<line x1="138.234" y1="514.23" x2="546.234" y2="107.23" stroke="black" stroke-width="5"/>
</svg>
