<svg height="512" viewBox="0 0 64 64" width="512" xmlns="http://www.w3.org/2000/svg"><g id="Loading"><path d="m61 11v48a2.006 2.006 0 0 1 -2 2h-54a2.006 2.006 0 0 1 -2-2v-48z" fill="#d1e7f8"/><path d="m59 3h-54a2 2 0 0 0 -2 2v6h58v-6a2 2 0 0 0 -2-2z" fill="#ff3051"/><path d="m14 61h45a2.006 2.006 0 0 0 2-2v-34c0 19.9-21.021 36-47 36z" fill="#c2dff6"/><g fill="#231f20"><path d="m59 2h-54a3 3 0 0 0 -3 3v54a3 3 0 0 0 3 3h54a3 3 0 0 0 3-3v-54a3 3 0 0 0 -3-3zm-54 2h54a1 1 0 0 1 1 1v5h-56v-5a1 1 0 0 1 1-1zm54 56h-54a1 1 0 0 1 -1-1v-47h56v47a1 1 0 0 1 -1 1z"/><path d="m7 8h1a1 1 0 0 0 0-2h-1a1 1 0 0 0 0 2z"/><path d="m12 8h1a1 1 0 0 0 0-2h-1a1 1 0 0 0 0 2z"/><path d="m17 8h1a1 1 0 0 0 0-2h-1a1 1 0 0 0 0 2z"/><path d="m32 18a1 1 0 0 0 -1 1v4a1 1 0 0 0 2 0v-4a1 1 0 0 0 -1-1z"/><path d="m27.634 24.438a1 1 0 1 0 1.732-1l-2-3.464a1 1 0 1 0 -1.732 1z"/><path d="m21.974 25.366 3.463 2a1 1 0 1 0 1-1.732l-3.463-2a1 1 0 1 0 -1 1.732z"/><path d="m21 31h4a1 1 0 0 0 0-2h-4a1 1 0 0 0 0 2z"/><path d="m25.437 32.634-3.463 2a1 1 0 1 0 1 1.732l3.463-2a1 1 0 1 0 -1-1.732z"/><path d="m27.366 40.026 2-3.464a1 1 0 1 0 -1.732-1l-2 3.464a1 1 0 1 0 1.732 1z"/><path d="m32 36a1 1 0 0 0 -1 1v4a1 1 0 0 0 2 0v-4a1 1 0 0 0 -1-1z"/><path d="m38 40.393a1 1 0 0 0 .366-1.367l-2-3.464a1 1 0 1 0 -1.732 1l2 3.464a1 1 0 0 0 1.366.367z"/><path d="m42.026 34.634-3.464-2a1 1 0 0 0 -1 1.732l3.464 2a1 1 0 1 0 1-1.732z"/><path d="m38 30a1 1 0 0 0 1 1h4a1 1 0 0 0 0-2h-4a1 1 0 0 0 -1 1z"/><path d="m37.2 27a1 1 0 0 0 1.366.366l3.464-2a1 1 0 1 0 -1-1.732l-3.464 2a1 1 0 0 0 -.366 1.366z"/><path d="m35 24.8a1 1 0 0 0 1.366-.366l2-3.464a1 1 0 1 0 -1.732-1l-2 3.464a1 1 0 0 0 .366 1.366z"/><path d="m12 53h-3v-5a1 1 0 0 0 -2 0v6a1 1 0 0 0 1 1h4a1 1 0 0 0 0-2z"/><path d="m16 49a3 3 0 1 0 3 3 3 3 0 0 0 -3-3zm0 4a1 1 0 1 1 1-1 1 1 0 0 1 -1 1z"/><path d="m25 49a.994.994 0 0 0 -.713.3 3 3 0 1 0 0 5.4 1 1 0 0 0 1.713-.7v-4a1 1 0 0 0 -1-1zm-2 4a1 1 0 1 1 1-1 1 1 0 0 1 -1 1z"/><path d="m48 49a.994.994 0 0 0 -.713.3 3 3 0 1 0 -.287 5.516v.184a1 1 0 0 1 -1 1h-1a1 1 0 0 0 0 2h1a3 3 0 0 0 3-3v-5a1 1 0 0 0 -1-1zm-2 4a1 1 0 1 1 1-1 1 1 0 0 1 -1 1z"/><path d="m35 49a1 1 0 0 0 -1 1v4a1 1 0 0 0 2 0v-4a1 1 0 0 0 -1-1z"/><path d="m32 47a1 1 0 0 0 -1 1v1.184a2.966 2.966 0 0 0 -1-.184 3 3 0 0 0 0 6 2.964 2.964 0 0 0 1.287-.3 1 1 0 0 0 1.713-.7v-6a1 1 0 0 0 -1-1zm-2 6a1 1 0 1 1 1-1 1 1 0 0 1 -1 1z"/><path d="m39.5 49a2.492 2.492 0 0 0 -.947.189.972.972 0 0 0 -.553-.189 1 1 0 0 0 -1 1v4a1 1 0 0 0 2 0v-2.5a.5.5 0 0 1 1 0v2.5a1 1 0 0 0 2 0v-2.5a2.5 2.5 0 0 0 -2.5-2.5z"/><circle cx="35" cy="47" r="1"/><circle cx="54" cy="54" r="1"/><circle cx="51" cy="54" r="1"/><circle cx="57" cy="54" r="1"/></g></g></svg>