<?xml version="1.0" standalone="no"?>
<!DOCTYPE svg PUBLIC "-//W3C//DTD SVG 20010904//EN"
 "http://www.w3.org/TR/2001/REC-SVG-20010904/DTD/svg10.dtd">
<svg version="1.0" xmlns="http://www.w3.org/2000/svg"
 width="256.000000pt" height="256.000000pt" viewBox="0 0 256.000000 256.000000"
 preserveAspectRatio="xMidYMid meet">

<g transform="translate(0.000000,256.000000) scale(0.100000,-0.100000)"
fill="#000000" stroke="none">
<path d="M105 2306 c-43 -19 -81 -64 -95 -111 -8 -29 -10 -243 -8 -770 l3
-730 22 -35 c12 -20 40 -46 61 -58 40 -22 41 -22 585 -22 l544 0 26 -39 c14
-21 49 -62 76 -90 234 -233 598 -278 886 -109 83 49 196 161 244 241 103 175
134 373 86 562 -21 85 -85 209 -144 281 l-50 62 -3 364 -3 365 -27 35 c-55 73
21 68 -1135 68 -845 -1 -1044 -3 -1068 -14z m202 -151 c29 -20 37 -59 19 -94
-26 -50 -92 -58 -125 -15 -27 34 -27 64 0 98 24 30 71 35 106 11z m240 -7 c46
-43 14 -128 -48 -128 -42 0 -60 10 -74 44 -33 78 60 143 122 84z m242 -4 c12
-15 21 -38 21 -51 0 -34 -42 -73 -80 -73 -38 0 -80 39 -80 73 0 42 36 77 80
77 30 0 43 -6 59 -26z m1352 -3 c25 -30 24 -66 -1 -91 -19 -19 -33 -20 -292
-20 -239 0 -274 2 -290 17 -28 25 -24 77 9 103 26 20 35 21 291 18 264 -3 264
-3 283 -27z m69 -411 c0 -77 -2 -140 -4 -140 -2 0 -30 13 -63 29 -99 50 -174
65 -313 66 -104 0 -138 -4 -200 -23 -129 -41 -206 -88 -306 -187 -103 -103
-161 -201 -194 -331 -31 -122 -24 -314 15 -416 7 -17 -20 -18 -483 -18 -270 0
-497 3 -506 6 -14 6 -16 66 -16 580 l0 574 1035 0 1035 0 0 -140z m-412 -242
l-3 -123 -117 -3 c-65 -1 -118 1 -118 6 0 14 70 126 98 156 40 42 102 86 124
86 17 0 18 -8 16 -122z m143 94 c59 -38 134 -135 154 -199 6 -23 6 -23 -109
-23 l-116 0 0 125 c0 141 0 142 71 97z m-357 -24 c-4 -7 -23 -36 -41 -65 -18
-28 -40 -70 -49 -92 l-16 -41 -79 0 c-43 0 -79 4 -79 9 0 17 127 127 190 164
68 39 86 45 74 25z m559 -20 c58 -31 197 -150 197 -169 0 -5 -35 -9 -77 -9
l-78 0 -25 58 c-13 31 -39 78 -57 104 -17 27 -29 48 -26 48 3 0 33 -15 66 -32z
m-693 -255 c0 -5 -7 -44 -15 -88 -8 -44 -17 -106 -20 -137 l-6 -58 -115 0
c-112 0 -114 0 -114 23 0 40 30 150 57 209 l26 58 93 0 c52 0 94 -3 94 -7z
m345 -138 l0 -140 -154 -3 -154 -3 6 78 c3 43 13 109 22 146 l18 68 131 -3
131 -3 0 -140z m339 137 c7 -12 34 -152 41 -219 l7 -63 -156 0 -156 0 0 145 0
145 129 0 c72 0 132 -3 135 -8z m304 -79 c17 -44 35 -109 38 -142 l7 -61 -115
0 -115 0 -7 78 c-4 42 -14 105 -22 140 -7 35 -14 65 -14 68 0 3 44 3 98 2 l97
-3 33 -82z m-1023 -330 c3 -32 14 -100 24 -152 13 -68 14 -94 6 -97 -7 -3 -47
-4 -91 -2 l-79 3 -28 52 c-28 52 -67 186 -67 230 0 23 1 23 114 23 l115 0 6
-57z m380 -98 l0 -150 -130 0 -129 0 -18 70 c-10 39 -21 107 -25 153 l-6 83
154 -3 154 -3 0 -150z m380 93 c-9 -82 -34 -208 -46 -230 -9 -16 -25 -18 -134
-18 l-125 0 0 155 0 155 156 0 156 0 -7 -62z m305 29 c0 -48 -26 -143 -60
-214 l-29 -63 -90 0 c-50 0 -91 4 -91 9 0 5 6 40 14 78 8 38 18 103 22 146 l7
77 113 0 114 0 0 -33z m-981 -380 c6 -18 29 -59 50 -92 22 -33 38 -62 36 -64
-10 -9 -143 77 -198 129 l-62 59 82 1 81 0 11 -33z m301 -82 c0 -126 -2 -130
-58 -101 -52 28 -172 173 -172 209 0 4 52 7 115 7 l115 0 0 -115z m290 104 c0
-36 -93 -155 -149 -191 -70 -44 -71 -43 -71 87 l0 115 110 0 c75 0 110 -4 110
-11z m226 -11 c-33 -46 -206 -168 -240 -168 -4 0 4 15 17 33 14 17 39 60 56
95 l31 62 76 0 c75 0 75 0 60 -22z"/>
<path d="M250 1756 c-6 -8 -10 -23 -8 -33 3 -17 36 -18 653 -18 l650 0 0 30 0
30 -641 3 c-552 2 -643 0 -654 -12z"/>
<path d="M243 1474 c-3 -9 -2 -24 4 -33 9 -14 46 -16 305 -19 317 -2 328 -1
313 48 -6 20 -13 20 -311 20 -273 0 -305 -2 -311 -16z"/>
<path d="M268 1233 c-22 -6 -33 -40 -18 -58 16 -20 399 -22 418 -3 18 18 14
46 -7 58 -19 10 -357 13 -393 3z"/>
<path d="M259 944 c-9 -11 -10 -20 -2 -32 9 -15 32 -17 179 -17 l169 0 3 24
c2 13 -2 28 -10 32 -7 5 -83 9 -169 9 -131 0 -159 -3 -170 -16z"/>
</g>
</svg>
