<svg width="600" height="600" viewBox="0 0 600 600" fill="none" xmlns="http://www.w3.org/2000/svg">

<line x1="301.397" y1="52.0732" x2="71.3971" y2="207.073" stroke="#C4C4C4" stroke-width="5"/>
<line x1="527.599" y1="207.07" x2="298.599" y2="52.0703" stroke="#C4C4C4" stroke-width="5"/>
<line x1="72.3303" y1="204.095" x2="187.33" y2="500.095" stroke="#C4C4C4" stroke-width="5"/>
<line x1="531.364" y1="205.814" x2="429.364" y2="501.815" stroke="#C4C4C4" stroke-width="5"/>
<line x1="427" y1="503.5" x2="185" y2="503.5" stroke="#C4C4C4" stroke-width="5"/>
<line x1="357.28" y1="400.814" x2="183.28" y2="235.814" stroke="#C4C4C4" stroke-width="5"/>
<line x1="414" y1="236.5" x2="185" y2="236.5" stroke="#C4C4C4" stroke-width="5"/>
<line x1="415.715" y1="235.819" x2="240.715" y2="400.819" stroke="#C4C4C4" stroke-width="5"/>
<line x1="302.43" y1="147.588" x2="241.43" y2="399.588" stroke="#C4C4C4" stroke-width="5"/>
<line x1="302.434" y1="146.43" x2="361.434" y2="398.43" stroke="#C4C4C4" stroke-width="5"/>
<line x1="413.389" y1="231.576" x2="528.389" y2="202.576" stroke="#C4C4C4" stroke-width="5"/>
<line x1="241.209" y1="400.17" x2="187.209" y2="502.17" stroke="#C4C4C4" stroke-width="5"/>
<line x1="424.92" y1="502.387" x2="356.92" y2="400.387" stroke="#C4C4C4" stroke-width="5"/>
<line x1="184.389" y1="236.424" x2="69.3887" y2="207.424" stroke="#C4C4C4" stroke-width="5"/>
<line x1="302.5" y1="50.0258" x2="301.5" y2="147.026" stroke="#C4C4C4" stroke-width="5"/>
<circle cx="300" cy="147" r="29" fill="#69B3A2"/>
<circle cx="301" cy="50" r="29" fill="#69B3A2"/>
<circle cx="529" cy="205" r="29" fill="#69B3A2"/>
<circle cx="70" cy="205" r="29" fill="#69B3A2"/>
<circle cx="181" cy="501" r="29" fill="#69B3A2"/>
<circle cx="427" cy="501" r="29" fill="#69B3A2"/>
<circle cx="239" cy="399" r="29" fill="#69B3A2"/>
<circle cx="414" cy="234" r="29" fill="#69B3A2"/>
<circle cx="359" cy="399" r="29" fill="#69B3A2"/>
<circle cx="185" cy="234" r="29" fill="#69B3A2"/>
</svg>
