<?xml version="1.0" standalone="no"?>
<!DOCTYPE svg PUBLIC "-//W3C//DTD SVG 20010904//EN"
 "http://www.w3.org/TR/2001/REC-SVG-20010904/DTD/svg10.dtd">
<svg version="1.0" xmlns="http://www.w3.org/2000/svg"
 width="450.000000pt" height="450.000000pt" viewBox="0 0 450.000000 450.000000"
 preserveAspectRatio="xMidYMid meet">

<g transform="translate(0.000000,450.000000) scale(0.100000,-0.100000)"
fill="#000000" stroke="none">
<path d="M936 3124 c-65 -18 -121 -35 -123 -38 -3 -3 -2 -17 1 -32 6 -22 11
-25 33 -19 14 3 38 8 53 12 33 6 16 56 154 -452 53 -192 115 -417 138 -500 22
-82 42 -166 42 -185 1 -33 0 -35 -44 -41 -25 -4 -72 -17 -105 -29 -33 -12
-136 -41 -230 -64 -194 -48 -237 -66 -255 -104 -7 -15 -16 -34 -20 -42 -4 -8
-52 -32 -106 -53 -224 -85 -274 -112 -274 -145 0 -10 23 -31 55 -50 30 -18 55
-40 55 -49 0 -9 -25 -42 -55 -74 -30 -32 -55 -63 -55 -71 1 -44 52 -62 266
-93 256 -37 260 -38 339 -120 37 -39 64 -57 105 -70 72 -23 157 -62 165 -76
19 -30 114 -46 350 -59 311 -18 326 -20 385 -48 49 -23 70 -26 196 -30 78 -2
244 3 370 12 126 8 283 18 349 21 282 13 400 27 570 67 85 19 116 32 260 107
33 17 125 49 204 72 148 42 188 57 215 84 8 8 50 36 93 61 90 53 133 90 133
116 0 16 -92 98 -111 98 -4 0 -13 9 -19 19 -8 16 -3 27 30 61 22 23 40 50 40
60 0 10 -16 32 -35 49 -27 23 -35 38 -35 64 0 20 -7 41 -18 50 -14 13 -179 63
-447 135 l-30 8 -5 96 c-4 72 -9 101 -22 115 -10 10 -27 49 -38 85 -22 72 -52
115 -95 138 -15 8 -36 32 -47 55 -31 61 -66 103 -108 130 -21 13 -61 48 -89
78 -77 81 -214 133 -334 125 -61 -4 -73 -8 -150 -61 -46 -31 -102 -76 -124
-99 -23 -24 -56 -54 -74 -67 -43 -33 -116 -133 -124 -171 -4 -17 -16 -35 -28
-41 -12 -6 -42 -31 -67 -54 l-45 -43 -174 -12 c-222 -14 -258 -21 -285 -54
-25 -30 -87 -46 -271 -71 -66 -9 -126 -17 -134 -18 -19 -3 -26 13 -65 158 -19
72 -85 315 -146 540 -61 226 -115 420 -120 432 -12 28 -3 53 19 53 9 1 26 6
37 13 17 9 20 17 13 35 -11 28 -18 27 -163 -14z m554 -1606 c18 -69 31 -108
37 -108 3 0 46 9 95 21 49 11 95 19 102 16 16 -6 46 -158 46 -236 0 -46 -4
-61 -14 -61 -8 0 -16 5 -18 11 -5 14 -88 -26 -88 -41 0 -6 -6 -10 -14 -10 -8
0 -16 -6 -19 -12 -5 -14 -60 -15 -91 -3 -11 5 -21 3 -26 -5 -5 -7 -15 -10 -25
-6 -10 3 -23 2 -29 -2 -6 -5 -45 -14 -86 -21 -41 -7 -84 -15 -96 -18 -17 -3
-26 6 -51 54 -49 90 -85 193 -70 198 73 24 109 35 147 45 25 6 53 19 63 27 21
20 23 79 2 87 -8 3 -15 11 -14 18 0 10 2 10 6 1 2 -7 9 -13 14 -13 6 0 9 6 8
13 -6 49 2 67 34 76 65 19 75 15 87 -31z m-150 -2 c0 -3 -4 -8 -10 -11 -5 -3
-10 -1 -10 4 0 6 5 11 10 11 6 0 10 -2 10 -4z"/>
<path d="M1730 1215 c0 -8 7 -15 15 -15 8 0 15 7 15 15 0 8 -7 15 -15 15 -8 0
-15 -7 -15 -15z"/>
<path d="M1655 1160 c3 -5 8 -10 11 -10 2 0 4 5 4 10 0 6 -5 10 -11 10 -5 0
-7 -4 -4 -10z"/>
<path d="M1343 1144 c-7 -18 11 -39 26 -30 17 11 13 46 -4 46 -9 0 -18 -7 -22
-16z"/>
<path d="M1427 1134 c-9 -10 4 -34 19 -34 8 0 14 9 14 20 0 19 -19 27 -33 14z"/>
<path d="M1570 1125 c0 -8 7 -15 15 -15 8 0 15 7 15 15 0 8 -7 15 -15 15 -8 0
-15 -7 -15 -15z"/>
<path d="M1480 1120 c0 -5 5 -10 10 -10 6 0 10 5 10 10 0 6 -4 10 -10 10 -5 0
-10 -4 -10 -10z"/>
<path d="M1245 1100 c-8 -13 13 -40 31 -40 17 0 18 22 2 38 -15 15 -25 15 -33
2z"/>
</g>
</svg>
