<?xml version="1.0" standalone="no"?>
<!DOCTYPE svg PUBLIC "-//W3C//DTD SVG 20010904//EN"
 "http://www.w3.org/TR/2001/REC-SVG-20010904/DTD/svg10.dtd">
<svg version="1.0" xmlns="http://www.w3.org/2000/svg"
 width="481.000000pt" height="334.000000pt" viewBox="0 0 481.000000 334.000000"
 preserveAspectRatio="xMidYMid meet">

<g transform="translate(0.000000,334.000000) scale(0.100000,-0.100000)"
fill="#000000" stroke="none">
<path d="M2624 2426 c-8 -21 3 -36 27 -36 15 0 20 6 17 22 -4 27 -35 37 -44
14z"/>
<path d="M2115 2396 c-16 -8 -47 -30 -67 -50 -33 -31 -41 -34 -64 -26 -38 15
-97 -4 -128 -41 -25 -29 -28 -30 -62 -19 -54 18 -112 7 -143 -28 -22 -24 -38
-30 -88 -36 -52 -6 -66 -4 -95 14 -22 13 -50 20 -86 20 -87 0 -156 -47 -182
-124 -5 -17 -23 -40 -40 -49 -16 -10 -35 -27 -40 -38 -8 -13 -21 -19 -46 -19
-46 0 -88 -25 -110 -66 -25 -45 -74 -63 -161 -57 -84 6 -121 -9 -159 -67 -37
-55 -37 -124 -2 -177 24 -37 25 -41 11 -67 -11 -20 -13 -43 -9 -76 6 -44 4
-51 -24 -78 -24 -24 -30 -39 -30 -72 0 -22 7 -54 15 -70 8 -15 14 -48 13 -72
-1 -28 6 -60 21 -90 37 -78 110 -102 224 -73 21 6 27 4 27 -8 0 -34 43 -68 95
-75 44 -6 50 -10 53 -32 11 -96 119 -158 206 -119 22 10 29 8 56 -15 26 -21
42 -26 88 -26 l57 -1 30 -51 c42 -72 97 -101 181 -96 71 4 118 34 160 100 22
35 29 39 52 33 15 -3 38 -15 52 -26 55 -43 88 -54 130 -42 37 9 41 8 55 -14 9
-13 30 -33 48 -43 34 -21 102 -27 112 -10 12 19 41 10 71 -21 39 -42 82 -59
150 -59 66 0 129 31 165 81 19 27 26 30 56 24 25 -4 47 0 78 15 41 20 46 20
67 6 32 -22 90 -20 122 5 21 16 34 19 68 14 52 -8 93 6 134 46 l30 29 25 -26
c43 -46 96 -67 160 -62 79 6 133 42 165 113 20 42 30 54 54 59 16 3 38 15 47
27 35 42 45 49 69 49 28 0 74 41 74 65 0 9 19 24 44 35 25 10 49 27 55 38 6
11 30 27 53 37 24 9 50 23 58 30 13 12 22 12 59 -1 143 -49 253 117 161 246
-20 28 -20 32 -6 52 9 12 16 33 16 45 0 12 7 38 16 57 16 32 16 36 -5 79 l-22
46 29 40 c54 75 50 158 -11 228 -50 57 -126 78 -192 53 -21 -8 -32 -6 -55 12
-23 16 -42 21 -84 20 -52 -1 -55 0 -65 28 -12 37 -66 71 -106 68 -24 -3 -32 2
-43 27 -33 69 -101 106 -156 85 -24 -9 -27 -7 -40 24 -25 61 -74 80 -130 51
-40 -21 -45 -19 -61 18 -48 115 -182 153 -277 77 -29 -24 -47 -30 -84 -30 -42
0 -51 -4 -84 -40 -33 -36 -42 -40 -83 -40 -26 0 -47 4 -47 9 0 22 -55 72 -91
82 -35 11 -43 10 -91 -15 -51 -26 -53 -27 -88 -11 -34 15 -40 15 -75 1 l-39
-17 -40 40 c-23 22 -54 45 -69 50 -38 15 -96 13 -132 -3z m-132 -153 c-7 -3
-13 -11 -13 -19 0 -8 -4 -14 -10 -14 -5 0 -10 4 -10 9 0 14 32 43 39 35 3 -4
0 -9 -6 -11z m-139 -21 c2 -4 -4 -8 -14 -8 -10 0 -16 4 -14 8 3 4 9 8 14 8 5
0 11 -4 14 -8z m1293 -17 c0 -8 -4 -12 -9 -9 -4 3 -8 9 -8 15 0 5 4 9 8 9 5 0
9 -7 9 -15z m28 6 c3 -5 1 -12 -5 -16 -5 -3 -10 1 -10 9 0 18 6 21 15 7z
m-147 -96 c0 -14 -4 -25 -9 -25 -5 0 -9 5 -9 11 0 6 -7 9 -15 5 -8 -3 -15 -1
-15 4 0 6 7 10 16 10 8 0 12 5 9 10 -3 6 0 10 8 10 9 0 15 -10 15 -25z m-1062
4 c10 -17 -13 -36 -27 -22 -12 12 -4 33 11 33 5 0 12 -5 16 -11z m1660 -75
c-4 -9 -9 -15 -11 -12 -3 3 -3 13 1 22 4 9 9 15 11 12 3 -3 3 -13 -1 -22z
m-2706 -384 c0 -5 -2 -10 -4 -10 -3 0 -8 5 -11 10 -3 6 -1 10 4 10 6 0 11 -4
11 -10z m-79 -33 c-10 -9 -11 -8 -5 6 3 10 9 15 12 12 3 -3 0 -11 -7 -18z m37
-12 c-3 -26 0 -35 12 -36 9 0 10 -2 3 -5 -7 -3 -20 -1 -30 5 -10 6 -12 11 -5
11 7 0 12 13 12 30 0 17 3 30 6 30 3 0 4 -16 2 -35z m55 -10 c-7 -21 -13 -19
-13 6 0 11 4 18 10 14 5 -3 7 -12 3 -20z m3172 -5 c7 -12 -2 -12 -30 0 -19 8
-19 9 2 9 12 1 25 -3 28 -9z m-3255 -114 c0 -8 -2 -8 -8 0 -10 15 -42 14 -42
-2 0 -7 8 -14 18 -16 10 -2 13 -6 7 -10 -15 -9 -32 3 -37 27 -2 14 2 20 15 19
9 -1 17 3 17 8 0 6 6 5 15 -2 8 -7 15 -18 15 -24z m124 -2 c9 -3 16 -11 16
-17 0 -8 -3 -8 -11 0 -6 6 -18 9 -27 6 -10 -4 -13 -2 -8 5 8 14 9 14 30 6z
m2956 -24 c0 -5 -2 -10 -4 -10 -3 0 -8 5 -11 10 -3 6 -1 10 4 10 6 0 11 -4 11
-10z m65 0 c3 -5 -1 -10 -9 -10 -9 0 -16 5 -16 10 0 6 4 10 9 10 6 0 13 -4 16
-10z m-3040 -10 c3 -5 1 -10 -4 -10 -6 0 -11 5 -11 10 0 6 2 10 4 10 3 0 8 -4
11 -10z m3024 -51 c-23 -15 -49 -10 -49 9 0 14 2 15 10 2 8 -13 12 -13 27 3
12 11 19 13 22 6 2 -6 -3 -15 -10 -20z m-195 -138 c3 -5 0 -14 -7 -19 -10 -8
-13 -6 -14 9 -2 19 11 26 21 10z m-2684 -56 c0 -8 -4 -15 -8 -15 -5 0 -9 7 -9
15 0 8 4 15 9 15 4 0 8 -7 8 -15z m2270 -23 c0 -15 -2 -15 -10 -2 -13 20 -13
33 0 25 6 -3 10 -14 10 -23z m-44 -19 c-11 -11 -19 6 -11 24 8 17 8 17 12 0 3
-10 2 -21 -1 -24z m-1906 -3 c0 -5 -4 -10 -10 -10 -5 0 -10 5 -10 10 0 6 5 10
10 10 6 0 10 -4 10 -10z m1940 -10 c0 -5 -5 -10 -11 -10 -5 0 -7 5 -4 10 3 6
8 10 11 10 2 0 4 -4 4 -10z m-383 -6 c-3 -3 -12 -4 -19 -1 -8 3 -5 6 6 6 11 1
17 -2 13 -5z m-1527 -34 c0 -5 -7 -10 -15 -10 -8 0 -15 5 -15 10 0 6 7 10 15
10 8 0 15 -4 15 -10z m1996 -59 c-4 -5 0 -11 6 -14 7 -2 10 -8 6 -12 -10 -10
-40 14 -32 26 3 5 10 9 15 9 6 0 8 -4 5 -9z m-206 -96 c0 -8 -2 -15 -4 -15 -2
0 -6 7 -10 15 -3 8 -1 15 4 15 6 0 10 -7 10 -15z"/>
<path d="M1635 2386 c-20 -15 -17 -44 7 -59 12 -8 21 -7 32 2 36 30 -1 85 -39
57z"/>
<path d="M3484 2326 c-10 -26 4 -48 28 -44 17 2 23 10 23 28 0 18 -6 26 -23
28 -13 2 -25 -3 -28 -12z"/>
<path d="M3824 2175 c-7 -18 12 -45 32 -45 15 0 28 35 19 50 -9 15 -45 12 -51
-5z"/>
<path d="M940 2071 c0 -24 25 -34 40 -16 15 18 5 35 -21 35 -12 0 -19 -7 -19
-19z"/>
<path d="M532 1548 c-17 -17 -15 -53 3 -68 20 -17 62 -5 70 20 14 44 -41 80
-73 48z"/>
<path d="M4394 1486 c-11 -28 1 -51 25 -51 32 0 49 28 32 49 -17 20 -50 21
-57 2z"/>
<path d="M4566 1447 c-21 -16 -18 -45 6 -61 14 -8 22 -6 39 10 17 18 19 25 10
43 -13 24 -30 27 -55 8z"/>
<path d="M422 1417 c-27 -29 -28 -61 -2 -87 43 -43 110 -14 110 48 0 57 -68
82 -108 39z"/>
<path d="M4443 1354 c-8 -22 10 -49 32 -49 10 0 22 7 28 16 15 24 1 49 -28 49
-15 0 -28 -7 -32 -16z"/>
<path d="M490 1090 c-45 -45 -29 -112 34 -134 81 -29 138 72 76 134 -26 26
-84 26 -110 0z"/>
<path d="M4331 1084 c-12 -15 -21 -33 -21 -40 0 -23 38 -54 65 -54 29 0 65 32
65 58 0 25 -41 62 -67 62 -12 0 -31 -12 -42 -26z"/>
<path d="M4152 1023 c-17 -6 -42 -57 -42 -83 0 -34 44 -70 85 -70 41 0 85 36
85 70 0 26 -18 61 -39 77 -16 12 -65 16 -89 6z"/>
<path d="M360 977 c-13 -7 -29 -25 -34 -40 -22 -61 67 -114 113 -68 53 53 -12
142 -79 108z"/>
<path d="M4380 920 c-25 -25 -26 -52 -2 -73 24 -22 55 -21 75 1 21 23 21 41 1
70 -19 27 -48 28 -74 2z"/>
<path d="M707 906 c-11 -28 4 -47 32 -44 20 2 26 8 26 28 0 20 -6 26 -26 28
-17 2 -29 -3 -32 -12z"/>
<path d="M476 814 c-38 -38 -36 -84 6 -119 38 -32 81 -29 116 11 30 34 28 70
-7 105 -38 37 -79 38 -115 3z"/>
<path d="M3767 762 c-38 -42 -8 -102 50 -102 55 0 85 67 45 103 -25 22 -75 21
-95 -1z"/>
<path d="M1130 685 c-26 -32 13 -81 48 -59 34 22 22 74 -18 74 -10 0 -23 -7
-30 -15z"/>
<path d="M1281 668 c-54 -20 -68 -82 -26 -123 30 -30 64 -32 99 -4 28 22 35
64 16 99 -13 25 -59 39 -89 28z"/>
<path d="M3714 605 c-8 -21 2 -45 19 -45 8 0 20 7 27 15 10 12 10 18 0 30 -7
8 -19 15 -27 15 -7 0 -16 -7 -19 -15z"/>
<path d="M3036 585 c-3 -9 4 -25 15 -36 18 -18 19 -24 9 -54 -13 -38 -2 -68
30 -85 71 -38 136 53 77 108 -13 12 -33 22 -44 22 -15 0 -22 8 -26 30 -5 23
-12 30 -31 30 -13 0 -26 -7 -30 -15z"/>
<path d="M2004 545 c-15 -11 -17 -17 -8 -32 16 -26 58 -24 62 4 4 30 -29 47
-54 28z"/>
<path d="M2135 475 c-14 -13 -25 -33 -25 -45 0 -25 42 -70 65 -70 20 0 57 19
67 34 15 22 8 66 -14 86 -29 27 -64 25 -93 -5z"/>
</g>
</svg>
