<svg id="Capa_1" enable-background="new 0 0 512 512" height="512" viewBox="0 0 512 512" width="512" xmlns="http://www.w3.org/2000/svg"><g><path d="m477.814 262.458v-12.916c0-4.142-3.357-7.5-7.5-7.5s-7.5 3.358-7.5 7.5v12.916c0 4.142 3.357 7.5 7.5 7.5s7.5-3.358 7.5-7.5z"/><path d="m313.42 229.113c0-40.275-32.767-73.042-73.042-73.042s-73.041 32.766-73.041 73.042 32.766 73.042 73.041 73.042 73.042-32.767 73.042-73.042zm-131.083 0c0-32.004 26.037-58.042 58.041-58.042 32.005 0 58.042 26.037 58.042 58.042s-26.037 58.042-58.042 58.042c-32.004-.001-58.041-26.038-58.041-58.042z"/><path d="m271.711 216.827-37.256-22.441c-9.539-5.746-21.743 1.143-21.743 12.287v44.88c0 11.219 12.279 17.986 21.744 12.287l37.255-22.44c9.267-5.582 9.248-19.003 0-24.573zm-43.999 33.564v-42.556l35.325 21.278z"/><path d="m315.045 377.738c4.143 0 7.5-3.358 7.5-7.5v-.167h64.833c11.855 0 21.5-9.645 21.5-21.5s-9.645-21.5-21.5-21.5h-64.833c0-4.142-3.357-7.5-7.5-7.5s-7.5 3.358-7.5 7.5h-214.167c-11.855 0-21.5 9.645-21.5 21.5s9.645 21.5 21.5 21.5h214.167v.167c0 4.142 3.357 7.5 7.5 7.5zm7.5-35.667h64.833c3.584 0 6.5 2.916 6.5 6.5s-2.916 6.5-6.5 6.5h-64.833zm-229.167 13c-3.584 0-6.5-2.916-6.5-6.5s2.916-6.5 6.5-6.5h214.167v13z"/><path d="m40.846 440.788h430.308c22.522 0 40.847-18.324 40.847-40.846v-287.883c0-22.523-18.324-40.847-40.847-40.847h-197.654c-4.143 0-7.5 3.358-7.5 7.5s3.357 7.5 7.5 7.5h197.653c14.252 0 25.847 11.595 25.847 25.847v287.882c0 14.251-11.595 25.846-25.847 25.846h-430.307c-14.251.001-25.846-11.594-25.846-25.846v-287.882c0-14.252 11.595-25.847 25.846-25.847h197.654c4.143 0 7.5-3.358 7.5-7.5s-3.357-7.5-7.5-7.5h-197.654c-22.523 0-40.846 18.324-40.846 40.847v287.882c0 22.523 18.323 40.847 40.846 40.847z"/><path d="m442.725 246c4.143 0 7.5-3.358 7.5-7.5v-126.44c0-4.518-3.816-8.334-8.334-8.334h-401.045c-4.517 0-8.333 3.816-8.333 8.334v287.88c0 4.518 3.816 8.334 8.333 8.334h401.045c4.518 0 8.334-3.816 8.334-8.334v-126.44c0-4.142-3.357-7.5-7.5-7.5s-7.5 3.358-7.5 7.5v119.774h-387.712v-274.548h387.712v119.774c0 4.142 3.357 7.5 7.5 7.5z"/></g></svg>