<?xml version="1.0" encoding="UTF-8" standalone="no"?>
<svg
   xmlns:dc="http://purl.org/dc/elements/1.1/"
   xmlns:cc="http://creativecommons.org/ns#"
   xmlns:rdf="http://www.w3.org/1999/02/22-rdf-syntax-ns#"
   xmlns:svg="http://www.w3.org/2000/svg"
   xmlns="http://www.w3.org/2000/svg"
   xmlns:sodipodi="http://sodipodi.sourceforge.net/DTD/sodipodi-0.dtd"
   xmlns:inkscape="http://www.inkscape.org/namespaces/inkscape"
   id="_x33_0"
   enable-background="new 0 0 64 64"
   height="512"
   viewBox="0 0 64 64"
   width="512"
   version="1.1"
   sodipodi:docname="vs_ai(1).svg"
   inkscape:version="0.92.4 (5da689c313, 2019-01-14)">
  <metadata
     id="metadata907">
    <rdf:RDF>
      <cc:Work
         rdf:about="">
        <dc:format>image/svg+xml</dc:format>
        <dc:type
           rdf:resource="http://purl.org/dc/dcmitype/StillImage" />
        <dc:title></dc:title>
      </cc:Work>
    </rdf:RDF>
  </metadata>
  <defs
     id="defs905">
    <clipPath
       clipPathUnits="userSpaceOnUse"
       id="clipPath1291">
      <path
         style="fill:#666666;fill-opacity:1;stroke:none;stroke-width:1.66381574px;stroke-linecap:butt;stroke-linejoin:miter;stroke-opacity:1"
         d="m 25.622671,-41.184111 427.251619,-0.678746 c -0.77841,15.888203 6.20896,21.147065 -14.44916,21.091528 -77.08976,-0.207254 -95.86248,48.258916 -95.34559,74.135904 l -0.64395,135.807105 c 0.32732,30.33102 34.3407,54.72256 71.34841,56.09855 l 36.11545,0.74245 -0.0214,156.4131 -425.313439,2.62491 z"
         id="path1293"
         inkscape:connector-curvature="0"
         sodipodi:nodetypes="ccsccccccc"
         inkscape:label="Mask" />
    </clipPath>
  </defs>
  <sodipodi:namedview
     pagecolor="#ffffff"
     bordercolor="#666666"
     borderopacity="1"
     objecttolerance="10"
     gridtolerance="10"
     guidetolerance="10"
     inkscape:pageopacity="0"
     inkscape:pageshadow="2"
     inkscape:window-width="1920"
     inkscape:window-height="1001"
     id="namedview903"
     showgrid="false"
     inkscape:zoom="1.1159029"
     inkscape:cx="355.4208"
     inkscape:cy="335.68014"
     inkscape:window-x="-9"
     inkscape:window-y="-9"
     inkscape:window-maximized="1"
     inkscape:current-layer="_x33_0" />
  <g
     id="g900"
     inkscape:label="All">
    <path
       d="m 13,47 c 0,-1.103 -0.897,-2 -2,-2 H 9 c -1.103,0 -2,0.897 -2,2 -1.103,0 -2,0.897 -2,2 v 2 c 0,1.103 0.897,2 2,2 0,1.103 0.897,2 2,2 h 2 c 1.103,0 2,-0.897 2,-2 1.103,0 2,-0.897 2,-2 v -2 c 0,-1.103 -0.897,-2 -2,-2 z m 0,4 h -2 v 2 H 9 V 51 H 7 v -2 h 2 v -2 h 2 v 2 l 2,-0.002 z"
       id="path862"
       inkscape:connector-curvature="0" />
    <path
       d="m 17,53 h 2 v 2 h -2 z"
       id="path864"
       inkscape:connector-curvature="0" />
    <path
       d="m 21,53 h 2 v 2 h -2 z"
       id="path866"
       inkscape:connector-curvature="0" />
    <path
       d="m 27,53 h 2 v 2 h -2 z"
       id="path868"
       inkscape:connector-curvature="0" />
    <path
       d="m 31,53 h 2 v 2 h -2 z"
       id="path870"
       inkscape:connector-curvature="0" />
    <circle
       cx="30"
       cy="46"
       r="1"
       id="circle872" />
    <circle
       cx="30"
       cy="50"
       r="1"
       id="circle874" />
    <circle
       cx="28"
       cy="48"
       r="1"
       id="circle876" />
    <circle
       cx="32"
       cy="48"
       r="1"
       id="circle878" />
    <path
       d="M 37,9 C 37,7.897 36.103,7 35,7 h -2 c -1.103,0 -2,0.897 -2,2 -1.103,0 -2,0.897 -2,2 v 2 c 0,1.103 0.897,2 2,2 0,1.103 0.897,2 2,2 h 2 c 1.103,0 2,-0.897 2,-2 1.103,0 2,-0.897 2,-2 V 11 C 39,9.897 38.103,9 37,9 Z m 0,4 h -2 v 2 h -2 v -2 h -2 v -2 h 2 V 9 h 2 v 2 l 2,-0.002 z"
       id="path880"
       inkscape:connector-curvature="0" />
    <path
       d="M 36.399,22.467 C 37.089,21.548 38.186,21 39.333,21 h 9.334 c 1.147,0 2.244,0.548 2.934,1.466 C 52.789,24.053 54.684,25 56.667,25 60.159,25 63,22.159 63,18.667 V 10 C 63,6.141 59.859,3 56,3 H 35 V 1 H 1 v 36 h 28 v 4 H 8 c -3.859,0 -7,3.141 -7,7 v 8.667 C 1,60.159 3.841,63 7.333,63 9.316,63 11.211,62.053 12.399,60.467 13.089,59.548 14.186,59 15.333,59 h 9.334 c 1.147,0 2.244,0.548 2.934,1.466 C 28.789,62.053 30.684,63 32.667,63 H 63 V 27 H 35 v -3.184 c 0.527,-0.375 1.005,-0.823 1.399,-1.349 z M 61,10 v 8.667 C 61,21.057 59.057,23 56.667,23 55.31,23 54.014,22.352 53.2,21.266 52.135,19.847 50.44,19 48.667,19 H 39.333 C 37.56,19 35.865,19.847 34.8,21.267 33.986,22.352 32.69,23 31.333,23 28.943,23 27,21.057 27,18.667 V 10 c 0,-2.757 2.243,-5 5,-5 h 9 v 8 h 6 V 5 h 9 c 2.757,0 5,2.243 5,5 z M 43,9 h 2 v 2 H 43 Z M 45,7 H 43 V 5 h 2 z M 3,35 V 3 H 32 C 29.089,3 24.964755,5.403093 24.918907,9.9533975 L 25,18.667 C 25,22.159 27.841,25 31.333,25 31.902,25 32.46,24.914 33,24.765 V 35 Z m 16,12 h 2 v 2 h -2 z m 2,-2 h -2 v -2 h 2 z m 8.2,14.266 C 28.135,57.847 26.44,57 24.667,57 H 15.333 C 13.56,57 11.865,57.847 10.8,59.267 9.986,60.352 8.69,61 7.333,61 4.943,61 3,59.057 3,56.667 V 48 c 0,-2.757 2.243,-5 5,-5 h 9 v 8 h 6 v -8 h 9 c 2.757,0 5,2.243 5,5 v 8.667 C 37,59.057 35.057,61 32.667,61 31.31,61 30.014,60.352 29.2,59.266 Z M 39,56.667 v -4.595 c 0.387,-0.227 0.8,-0.412 1.239,-0.5 l 2.246,-0.449 C 43.265,52.291 44.567,53 46,53 c 1.433,0 2.735,-0.709 3.515,-1.877 l 2.246,0.449 c 1.057,0.211 1.967,0.82 2.563,1.716 C 54.766,53.952 55,54.725 55,55.522 V 61 H 37.273 C 38.341,59.866 39,58.344 39,56.667 Z M 40.018,40.789 C 39.365,39.768 39,38.569 39,37.337 39,36.243 39.408,35.199 40.149,34.397 40.969,33.509 42.131,33 43.337,33 H 52 c 0.552,0 1,0.448 1,1 0,2.757 -2.243,5 -5,5 H 47.736 C 47.408,39 47.081,38.923 46.789,38.776 46.303,38.533 46,38.044 46,37.5 c 0,-0.544 0.303,-1.033 0.789,-1.276 l 0.658,-0.329 -0.895,-1.789 -0.658,0.329 c -0.917,0.458 -1.555,1.283 -1.79,2.247 l -1.59,0.636 c -1.45,0.579 -2.403,1.927 -2.496,3.471 z M 42,41.031 c 0,-0.822 0.493,-1.552 1.257,-1.856 l 0.994,-0.397 c 0.305,0.763 0.876,1.404 1.643,1.787 C 46.462,40.85 47.099,41 47.736,41 H 48 c 0.695,0 1.366,-0.105 2,-0.295 v 2.294 C 50,45.205 48.206,47 46,47 43.794,47 42,45.206 42,43 Z M 46,49 c 0.604,0 1.187,-0.092 1.737,-0.259 l 0.212,1.096 C 47.556,50.553 46.822,51 46,51 45.178,51 44.444,50.553 44.05,49.837 l 0.212,-1.096 C 44.813,48.908 45.396,49 46,49 Z M 61,29 v 32 h -4 v -5.478 c 0,-1.193 -0.351,-2.35 -1.013,-3.343 -0.892,-1.341 -2.254,-2.252 -3.834,-2.568 l -2.299,-0.46 -0.263,-1.356 C 51.05,46.699 52,44.96 52,42.999 v -3.263 c 1.811,-1.267 3,-3.364 3,-5.736 0,-1.654 -1.346,-3 -3,-3 h -8.663 c -1.763,0 -3.46,0.743 -4.656,2.039 C 37.597,34.213 37,35.738 37,37.337 c 0,2.494 1.143,4.879 3.06,6.462 0.219,1.63 1.092,3.052 2.349,3.996 l -0.263,1.356 -2.298,0.46 C 39.56,49.668 39.278,49.755 39,49.855 V 48 c 0,-3.859 -3.141,-7 -7,-7 h -1 v -4 h 4 v -8 z"
       id="path882"
       inkscape:connector-curvature="0"
       sodipodi:nodetypes="csscssssccccccsssscsscscccccssscsscssssccccsscccccccccccccccsccccccccccccccsscssssccccsssscscccscccsccscscssssscssccccccscccsscsssssccsccscccsccccscssscscccccssccccc" />
    <path
       d="m 41,15 h 2 v 2 h -2 z"
       id="path884"
       inkscape:connector-curvature="0" />
    <path
       d="m 45,15 h 2 v 2 h -2 z"
       id="path886"
       inkscape:connector-curvature="0" />
    <path
       d="m 51,15 h 2 v 2 h -2 z"
       id="path888"
       inkscape:connector-curvature="0" />
    <path
       d="m 55,15 h 2 v 2 h -2 z"
       id="path890"
       inkscape:connector-curvature="0" />
    <circle
       cx="54"
       cy="8"
       r="1"
       id="circle892" />
    <circle
       cx="54"
       cy="12"
       r="1"
       id="circle894" />
    <circle
       cx="52"
       cy="10"
       r="1"
       id="circle896" />
    <circle
       cx="56"
       cy="10"
       r="1"
       id="circle898" />
  </g>
  <g
     id="g1088"
     transform="matrix(0.07481961,0,0,0.07543869,0.2908425,5.3940041)"
     inkscape:label="Robot"
     clip-path="url(#clipPath1291)">
    <g
       id="g986">
	<g
   id="g984">
		<path
   id="path982"
   d="m 190.024,105.178 c -17.673,0 -32,14.327 -32,32 0,17.673 14.327,32 32,32 17.673,0 32,-14.327 32,-32 0,-17.673 -14.327,-32 -32,-32 z m 0,48 c -8.837,0 -16,-7.163 -16,-16 0.044,-8.805 7.195,-15.92 16,-15.92 v -0.08 c 8.837,0 16,7.163 16,16 0,8.837 -7.163,16 -16,16 z"
   inkscape:connector-curvature="0" />

	</g>

</g>
    <g
       id="g992">
	<g
   id="g990">
		<path
   id="path988"
   d="m 281.544,105.178 c -17.673,0 -32,14.327 -32,32 0,17.673 14.327,32 32,32 17.673,0 32,-14.327 32,-32 0,-17.673 -14.327,-32 -32,-32 z m 0,48 c -8.837,0 -16,-7.163 -16,-16 0.044,-8.805 7.195,-15.92 16,-15.92 v -0.08 c 8.837,0 16,7.163 16,16 0,8.837 -7.163,16 -16,16 z"
   inkscape:connector-curvature="0" />

	</g>

</g>
    <g
       id="g998">
	<g
   id="g996">
		<path
   id="path994"
   d="m 379.097,142.007 c -3.452,-18.993 -18.742,-33.603 -37.872,-36.189 -5.28,-19.52 -20.48,-36.16 -51.04,-36.16 h -46.4 v -17.6 c 14.034,-4.418 21.829,-19.377 17.41,-33.41 -4.418,-14.034 -19.377,-21.829 -33.41,-17.41 -14.034,4.418 -21.829,19.377 -17.41,33.41 2.613,8.298 9.112,14.798 17.41,17.41 v 17.2 h -46.32 c -21.6,0 -44.32,9.92 -51.2,36.16 -24.381,3.347 -41.433,25.825 -38.086,50.206 2.624,19.117 17.255,34.372 36.246,37.794 l -0.08,0.4 c 2.4,35.12 28.48,48 53.04,48 h 108.8 c 36.56,0 51.2,-24 53.04,-48 24.212,-4.402 40.273,-27.598 35.872,-51.811 z m -250.993,35.811 c -15.11,-4.368 -23.819,-20.158 -19.452,-35.268 2.715,-9.393 10.059,-16.737 19.452,-19.452 z m 97.04,-150.72 c 0,-5.876 4.764,-10.64 10.64,-10.64 5.876,0 10.64,4.764 10.64,10.64 0,5.876 -4.764,10.64 -10.64,10.64 -5.876,0 -10.64,-4.764 -10.64,-10.64 z m 102.32,160.96 c 0,13.92 -4.88,37.28 -37.28,37.28 h -108.72 c -13.92,0 -37.28,-4.88 -37.28,-37.28 l -0.08,-64.96 c 0,-32.48 23.36,-37.28 37.28,-37.28 h 108.8 c 32.48,0 37.28,23.36 37.28,37.28 z m 15.68,-10.8 v -54.72 c 12.196,3.52 20.604,14.667 20.64,27.36 -0.036,12.693 -8.444,23.84 -20.64,27.36 z"
   inkscape:connector-curvature="0" />

	</g>

</g>
    <g
       id="g1004">
	<g
   id="g1002">
		<path
   id="path1000"
   d="m 281.544,190.938 h -91.52 c -4.418,0 -8,3.582 -8,8 0,4.418 3.582,8 8,8 h 91.52 c 4.418,0 8,-3.582 8,-8 0,-4.418 -3.582,-8 -8,-8 z"
   inkscape:connector-curvature="0" />

	</g>

</g>
    <g
       id="g1010">
	<g
   id="g1008">
		<path
   id="path1006"
   d="m 413.784,256.778 v 0 c -0.153,-17.142 -14.173,-30.915 -31.315,-30.762 -14.344,0.128 -26.732,10.067 -29.965,24.042 l -21.36,4.16 h -190.72 l -21.36,-4.16 C 115.404,233.31 98.861,222.7 82.113,226.36 c -16.748,3.66 -27.358,20.203 -23.698,36.951 2.488,11.384 11.141,20.416 22.409,23.388 v 59.76 c -13.533,3.61 -22.972,15.834 -23.04,29.84 v 14.16 c 0,4.418 3.582,8 8,8 4.418,0 8,-3.582 8,-8 v -14.24 c 0,-8.306 6.734,-15.04 15.04,-15.04 8.306,0 15.04,6.734 15.04,15.04 v 14.24 c 0,4.418 3.582,8 8,8 4.418,0 8,-3.582 8,-8 v -14.24 c -0.068,-14.006 -9.507,-26.23 -23.04,-29.84 v -59.76 c 10.163,-2.738 18.239,-10.453 21.44,-20.48 l 13.36,2.64 v 98.72 c 0.016,14.473 3.068,28.781 8.96,42 v 0.72 c 23.619,52.357 85.21,75.653 137.566,52.034 23.106,-10.424 41.61,-28.927 52.034,-52.034 l 0.4,-0.88 c 5.955,-13.151 9.089,-27.404 9.2,-41.84 v -98.72 l 13.36,-2.64 c 3.201,10.027 11.277,17.742 21.44,20.48 v 59.76 c -13.533,3.61 -22.972,15.834 -23.04,29.84 v 14.24 c 0,4.418 3.582,8 8,8 4.418,0 8,-3.582 8,-8 v -14.24 c 0.008,-8.306 6.748,-15.034 15.054,-15.026 8.295,0.008 15.018,6.731 15.026,15.026 v 14.24 c 0,4.418 3.582,8 8,8 4.418,0 8,-3.582 8,-8 v -14.24 c -0.068,-14.006 -9.507,-26.23 -23.04,-29.84 v -59.76 c 13.596,-3.55 23.112,-15.79 23.2,-29.841 z m -324.96,15.04 c -8.306,0 -15.04,-6.734 -15.04,-15.04 0,-8.306 6.734,-15.04 15.04,-15.04 8.306,0 15.04,6.734 15.04,15.04 0,8.306 -6.734,15.04 -15.04,15.04 z m 146.96,183.76 c -30.139,-10e-4 -58.182,-15.425 -74.32,-40.88 h 148.64 c -16.138,25.454 -44.181,40.879 -74.32,40.88 z m 88,-88 c -0.039,10.668 -2.018,21.24 -5.84,31.2 h -164.48 c -3.822,-9.96 -5.801,-20.532 -5.84,-31.2 v -97.36 h 176.16 z m 59.043,-95.762 c -0.028,0 -0.055,0.001 -0.083,0.001 l -0.16,-0.24 c -8.306,0 -15.04,-6.734 -15.04,-15.04 0,-8.306 6.734,-15.04 15.04,-15.04 8.306,0 15.04,6.734 15.04,15.04 0.133,8.306 -6.492,15.146 -14.797,15.279 z"
   inkscape:connector-curvature="0" />

	</g>

</g>
    <g
       id="g1016">
	<g
   id="g1014">
		<path
   id="path1012"
   d="m 264.085,326.679 c -1.465,-1.322 -3.367,-2.056 -5.341,-2.061 h -24 l 29.44,-30.24 c 2.83,-3.393 2.375,-8.437 -1.018,-11.268 -3.034,-2.531 -7.461,-2.468 -10.422,0.148 l -42.64,43.84 c -3.093,3.155 -3.042,8.22 0.113,11.313 1.507,1.477 3.537,2.299 5.647,2.287 h 24.64 l -30.32,33.76 c -2.952,3.272 -2.702,8.316 0.56,11.28 v 0 c 3.272,2.952 8.316,2.702 11.28,-0.56 l 42.64,-47.2 c 2.96,-3.28 2.701,-8.339 -0.579,-11.299 z"
   inkscape:connector-curvature="0" />

	</g>

</g>
    <g
       id="g1018">
</g>
    <g
       id="g1020">
</g>
    <g
       id="g1022">
</g>
    <g
       id="g1024">
</g>
    <g
       id="g1026">
</g>
    <g
       id="g1028">
</g>
    <g
       id="g1030">
</g>
    <g
       id="g1032">
</g>
    <g
       id="g1034">
</g>
    <g
       id="g1036">
</g>
    <g
       id="g1038">
</g>
    <g
       id="g1040">
</g>
    <g
       id="g1042">
</g>
    <g
       id="g1044">
</g>
    <g
       id="g1046">
</g>
  </g>
</svg>
