<svg id="_x33_0" enable-background="new 0 0 64 64" height="512" viewBox="0 0 64 64" width="512" xmlns="http://www.w3.org/2000/svg"><g><path d="m13 47c0-1.103-.897-2-2-2h-2c-1.103 0-2 .897-2 2-1.103 0-2 .897-2 2v2c0 1.103.897 2 2 2 0 1.103.897 2 2 2h2c1.103 0 2-.897 2-2 1.103 0 2-.897 2-2v-2c0-1.103-.897-2-2-2zm0 4h-2v2h-2v-2h-2v-2h2v-2h2v2l2-.002z"/><path d="m17 53h2v2h-2z"/><path d="m21 53h2v2h-2z"/><path d="m27 53h2v2h-2z"/><path d="m31 53h2v2h-2z"/><circle cx="30" cy="46" r="1"/><circle cx="30" cy="50" r="1"/><circle cx="28" cy="48" r="1"/><circle cx="32" cy="48" r="1"/><path d="m37 9c0-1.103-.897-2-2-2h-2c-1.103 0-2 .897-2 2-1.103 0-2 .897-2 2v2c0 1.103.897 2 2 2 0 1.103.897 2 2 2h2c1.103 0 2-.897 2-2 1.103 0 2-.897 2-2v-2c0-1.103-.897-2-2-2zm0 4h-2v2h-2v-2h-2v-2h2v-2h2v2l2-.002z"/><path d="m36.399 22.467c.69-.919 1.787-1.467 2.934-1.467h9.334c1.147 0 2.244.548 2.934 1.466 1.188 1.587 3.083 2.534 5.066 2.534 3.492 0 6.333-2.841 6.333-6.333v-8.667c0-3.859-3.141-7-7-7h-21v-2h-34v36h28v4h-21c-3.859 0-7 3.141-7 7v8.667c0 3.492 2.841 6.333 6.333 6.333 1.983 0 3.878-.947 5.066-2.533.69-.919 1.787-1.467 2.934-1.467h9.334c1.147 0 2.244.548 2.934 1.466 1.188 1.587 3.083 2.534 5.066 2.534h30.333v-36h-28v-3.184c.527-.375 1.005-.823 1.399-1.349zm24.601-12.467v8.667c0 2.39-1.943 4.333-4.333 4.333-1.357 0-2.653-.648-3.467-1.734-1.065-1.419-2.76-2.266-4.533-2.266h-9.334c-1.773 0-3.468.847-4.533 2.267-.814 1.085-2.11 1.733-3.467 1.733-2.39 0-4.333-1.943-4.333-4.333v-8.667c0-2.757 2.243-5 5-5h9v8h6v-8h9c2.757 0 5 2.243 5 5zm-38.367 1.824c-1.369-.457-2.632-1.237-3.652-2.258l-.981-.98-.98.98c-1.021 1.021-2.283 1.801-3.651 2.257-.819.273-1.369 1.035-1.369 1.898v1.036c-.641-1.014-1-2.2-1-3.42 0-1.094.408-2.138 1.149-2.94.82-.888 1.982-1.397 3.188-1.397h5.326c1.206 0 2.368.509 3.188 1.396.741.803 1.149 1.847 1.149 2.942 0 1.219-.359 2.406-1 3.419v-1.036c0-.863-.55-1.625-1.367-1.897zm4.367 23.176h-18v-5.478c0-.798.234-1.57.677-2.235.596-.895 1.506-1.504 2.563-1.715l2.246-.449c.779 1.168 2.081 1.877 3.514 1.877s2.735-.709 3.515-1.877l2.246.449c1.057.211 1.967.82 2.563 1.716.442.664.676 1.437.676 2.234zm-7.05-11.163c-.394.716-1.128 1.163-1.95 1.163s-1.556-.447-1.95-1.163l.212-1.096c.551.167 1.134.259 1.738.259s1.187-.092 1.737-.259zm-1.95-2.837c-2.206 0-4-1.794-4-4v-3.279c1.473-.49 2.845-1.291 4-2.329 1.155 1.038 2.527 1.838 4 2.329v3.279c0 2.206-1.794 4-4 4zm25-12h2v2h-2zm2-2h-2v-2h2zm-42-4h29c-2.911 0-5.411 1.787-6.465 4.321-.076-.092-.135-.194-.216-.282-1.196-1.296-2.893-2.039-4.656-2.039h-5.326c-1.763 0-3.46.743-4.656 2.039-1.084 1.174-1.681 2.699-1.681 4.298 0 2.494 1.143 4.879 3.06 6.462.219 1.63 1.092 3.052 2.349 3.996l-.263 1.356-2.299.46c-1.58.316-2.942 1.228-3.834 2.567-.662.995-1.013 2.151-1.013 3.344v5.478h-4zm16 44h2v2h-2zm2-2h-2v-2h2zm8.2 14.266c-1.065-1.419-2.76-2.266-4.533-2.266h-9.334c-1.773 0-3.468.847-4.533 2.267-.814 1.085-2.11 1.733-3.467 1.733-2.39 0-4.333-1.943-4.333-4.333v-8.667c0-2.757 2.243-5 5-5h9v8h6v-8h9c2.757 0 5 2.243 5 5v8.667c0 2.39-1.943 4.333-4.333 4.333-1.357 0-2.653-.648-3.467-1.734zm9.8-2.599v-4.595c.387-.227.8-.412 1.239-.5l2.246-.449c.78 1.168 2.082 1.877 3.515 1.877s2.735-.709 3.515-1.877l2.246.449c1.057.211 1.967.82 2.563 1.716.442.664.676 1.437.676 2.234v5.478h-17.727c1.068-1.134 1.727-2.656 1.727-4.333zm1.018-15.878c-.653-1.021-1.018-2.22-1.018-3.452 0-1.094.408-2.138 1.149-2.94.82-.888 1.982-1.397 3.188-1.397h8.663c.552 0 1 .448 1 1 0 2.757-2.243 5-5 5h-.264c-.328 0-.655-.077-.947-.224-.486-.243-.789-.732-.789-1.276s.303-1.033.789-1.276l.658-.329-.895-1.789-.658.329c-.917.458-1.555 1.283-1.79 2.247l-1.59.636c-1.45.579-2.403 1.927-2.496 3.471zm1.982.242c0-.822.493-1.552 1.257-1.856l.994-.397c.305.763.876 1.404 1.643 1.787.568.285 1.205.435 1.842.435h.264c.695 0 1.366-.105 2-.295v2.294c0 2.206-1.794 4.001-4 4.001s-4-1.794-4-4zm4 7.969c.604 0 1.187-.092 1.737-.259l.212 1.096c-.393.716-1.127 1.163-1.949 1.163s-1.556-.447-1.95-1.163l.212-1.096c.551.167 1.134.259 1.738.259zm15-20v32h-4v-5.478c0-1.193-.351-2.35-1.013-3.343-.892-1.341-2.254-2.252-3.834-2.568l-2.299-.46-.263-1.356c1.459-1.096 2.409-2.835 2.409-4.796v-3.263c1.811-1.267 3-3.364 3-5.736 0-1.654-1.346-3-3-3h-8.663c-1.763 0-3.46.743-4.656 2.039-1.084 1.174-1.681 2.699-1.681 4.298 0 2.494 1.143 4.879 3.06 6.462.219 1.63 1.092 3.052 2.349 3.996l-.263 1.356-2.298.46c-.288.057-.57.144-.848.244v-1.855c0-3.859-3.141-7-7-7h-1v-4h4v-8zm-28 6h-4v-5.478c0-1.193-.351-2.35-1.013-3.343-.892-1.341-2.254-2.252-3.834-2.568l-2.299-.46-.263-1.356c1.257-.944 2.131-2.366 2.349-3.996.384-.317.741-.662 1.06-1.039v1.907c0 3.492 2.841 6.333 6.333 6.333.569 0 1.127-.086 1.667-.235z"/><path d="m41 15h2v2h-2z"/><path d="m45 15h2v2h-2z"/><path d="m51 15h2v2h-2z"/><path d="m55 15h2v2h-2z"/><circle cx="54" cy="8" r="1"/><circle cx="54" cy="12" r="1"/><circle cx="52" cy="10" r="1"/><circle cx="56" cy="10" r="1"/></g></svg>